<?xml version="1.0" standalone="no"?>
<!DOCTYPE svg PUBLIC "-//W3C//DTD SVG 20010904//EN"
 "http://www.w3.org/TR/2001/REC-SVG-20010904/DTD/svg10.dtd">
<svg version="1.0" xmlns="http://www.w3.org/2000/svg"
 width="16.000000pt" height="16.000000pt" viewBox="0 0 16.000000 16.000000"
 preserveAspectRatio="xMidYMid meet">

<g transform="translate(0.000000,16.000000) scale(0.100000,-0.100000)"
fill="#000000" stroke="none">
<path d="M60 140 c0 -5 -10 -10 -21 -10 -17 0 -20 -4 -15 -22 4 -13 9 -38 13
-56 5 -29 9 -32 43 -32 34 0 38 3 43 32 4 18 9 43 13 56 5 18 2 22 -15 22 -11
0 -21 5 -21 10 0 6 -9 10 -20 10 -11 0 -20 -4 -20 -10z m48 -27 c-16 -2 -40
-2 -55 0 -16 2 -3 4 27 4 30 0 43 -2 28 -4z m8 -35 c-3 -13 -6 -29 -6 -35 0
-8 -13 -13 -30 -13 -17 0 -30 5 -30 13 0 6 -3 22 -6 35 -6 20 -3 22 36 22 39
0 42 -2 36 -22z"/>
</g>
</svg>
